<svg width="2094" height="2095" xmlns="http://www.w3.org/2000/svg" xmlns:xlink="http://www.w3.org/1999/xlink" xml:space="preserve" overflow="hidden">
<defs>
<clipPath id="clip0">
<rect x="1153" y="190" width="2094" height="2095"/>
</clipPath>
</defs>
<g clip-path="url(#clip0)" transform="translate(-1153 -190)">
<rect x="1153" y="190" width="2094" height="2095" fill="#FFFFFF"/>
<path d="M49.616 511.915C49.616 511.915-23.7344 548.259 3.47079 593.397 30.6869 638.534 78.3032 654.031 163.275 614.553 248.249 575.054 611.745 295.916 739.773 137.429 867.824-21.0588 1103.26-63.5423 956.375 105.785 814.691 269.122 692.435 289.979 581.46 339.775 470.475 389.569 87.4742 1196.32 139.586 1453.92 191.696 1711.53 382.701 1586.52 478.624 1371.44 574.558 1156.36 787.964 1063.48 816.694 983.849 883.472 798.716 773.584 596.701 656.687 473.3 555.16 366.132 568.497 585.328 610.488 714.09 652.49 842.831 730.474 999.527 795.357 1165.18 910.401 1458.85 1123.58 1587.4 1223.25 1493.47 1386.37 1339.73 1344.5 1101.98 1418.61 1027.77 1492.72 953.569 1603.67 815.929 1431.39 713.216 1218.23 586.117 739.081 383.505 914.874 538.091 1090.68 692.699 1553.33 694.788 1628.74 592.672 1704.15 490.567 1607.5 373.902 1603.07 283.051 1598.65 192.19 1649.97 133.197 1544.26 80.4393 1438.55 27.6811 1220.36 129.34 1095.9 200.206 1016.25 245.545 918.774 281.581 796.369 292.164 673.953 302.748 511.401 329.053 426.172 362.817 360.576 388.802 174.535 418.081 150.599 386.553 104.411 325.706 147.851 271.743 194.763 279.364"
 stroke="#000000" 
 stroke-width="50" 
 stroke-miterlimit="8" 
 fill="none" 
 fill-rule="evenodd" 
 transform="matrix(1 0 0 -1 1370.5 2038.5)"/>
</g>
</svg>
