<svg width="1808" height="1809" xmlns="http://www.w3.org/2000/svg" xmlns:xlink="http://www.w3.org/1999/xlink" xml:space="preserve" overflow="hidden"><defs><linearGradient x1="1907" y1="636" x2="1907" y2="1839" gradientUnits="userSpaceOnUse" spreadMethod="reflect" id="fill0"><stop offset="0" stop-color="#33C481"/><stop offset="0.35" stop-color="#21A365"/><stop offset="0.69" stop-color="#107C41"/><stop offset="1" stop-color="#185B37"/></linearGradient></defs><g transform="translate(-1296 -333)"><path d="M3072.64 1276.78C3063.07 1260.58 3045.63 1250.63 3026.79 1250.63L2876.64 1250.63 2876.64 878.835C2876.69 812.172 2849.27 750.702 2805.49 707.143 2761.9 663.377 2700.4 635.948 2633.69 636.024L1965.12 636C1944.19 636 1924.79 647.07 1914.18 665.108 1903.56 683.122 1903.25 705.438 1913.42 723.731L1973.75 832.475C1986.78 855.935 2011.53 870.516 2038.36 870.516L2633.7 870.516C2636.4 870.565 2637.72 871.252 2639.58 872.932 2641.26 874.815 2641.97 876.137 2642.02 878.835L2642.02 1250.63 2491.87 1250.63C2473.03 1250.63 2455.59 1260.58 2446.02 1276.78 2436.47 1293.07 2436.19 1313.12 2445.33 1329.61L2712.79 1811.62C2722.16 1828.52 2739.99 1839 2759.33 1839 2778.68 1839 2796.5 1828.52 2805.87 1811.62L3073.33 1329.61C3082.47 1313.12 3082.19 1293.07 3072.64 1276.78Z" fill-rule="evenodd"/><path d="M2426.25 1642.51C2413.21 1619.03 2388.49 1604.48 2361.63 1604.48L1766.31 1604.48C1763.61 1604.43 1762.29 1603.74 1760.43 1602.06 1758.75 1600.2 1758.04 1598.88 1757.99 1596.18L1757.99 1224.39 1908.14 1224.39C1926.96 1224.39 1944.42 1214.43 1953.99 1198.23 1963.54 1181.94 1963.82 1161.89 1954.68 1145.4L1687.22 663.381C1677.82 646.483 1660.02 636 1640.68 636 1621.33 636 1603.53 646.483 1594.14 663.381L1326.67 1145.4C1317.53 1161.89 1317.81 1181.94 1327.36 1198.23 1336.93 1214.43 1354.39 1224.39 1373.21 1224.39L1523.36 1224.39 1523.36 1596.18C1523.31 1662.85 1550.73 1724.32 1594.52 1767.88 1638.1 1811.65 1699.61 1839.06 1766.31 1838.97L2434.88 1839C2455.81 1839 2475.21 1827.93 2485.82 1809.89 2496.44 1791.85 2496.75 1769.56 2486.59 1751.24L2426.25 1642.51Z" fill="url(#fill0)" fill-rule="evenodd"/></g></svg>