<svg width="1280" height="720" xmlns="http://www.w3.org/2000/svg" xmlns:xlink="http://www.w3.org/1999/xlink" overflow="hidden"><g><rect x="0" y="0" width="1280" height="720" fill="#FFFFFF" fill-opacity="0"/><g><g><g><path d="M354.438 155.469 198.603 155.469C187.918 155.469 179.123 164.264 179.123 174.947L179.123 257.734 354.438 360 442.094 396.986 529.75 360 529.75 257.734Z" fill="#21A366"/><path d="M179.123 257.734 354.438 257.734 354.438 360 179.123 360Z" fill="#107C41" fill-rule="evenodd"/><path d="M510.272 155.469 354.438 155.469 354.438 257.734 529.75 257.734 529.75 174.947C529.75 164.264 520.955 155.469 510.272 155.469Z" fill="#33C481"/><path d="M354.438 360 179.123 360 179.123 545.054C179.123 555.736 187.918 564.531 198.603 564.531L510.272 564.531C520.955 564.531 529.75 555.736 529.75 545.054L529.75 462.266Z" fill="#185C37"/><path d="M354.438 360 529.75 360 529.75 462.266 354.438 462.266Z" fill="#107C41" fill-rule="evenodd"/><path d="M305.741 228.516 179.125 228.516 179.125 506.094 305.741 506.094C316.413 506.064 325.189 497.288 325.219 486.616L325.219 247.993C325.189 237.322 316.413 228.545 305.741 228.516Z" fill="#000000" fill-opacity="0.094118"/><path d="M291.132 243.125 179.125 243.125 179.125 520.703 291.132 520.703C301.803 520.673 310.58 511.897 310.609 501.225L310.609 262.603C310.58 251.931 301.803 243.155 291.132 243.125Z" fill="#000000" fill-opacity="0.2"/><path d="M291.132 243.125 179.125 243.125 179.125 491.484 291.132 491.484C301.803 491.455 310.58 482.678 310.609 472.007L310.609 262.603C310.58 251.931 301.803 243.155 291.132 243.125Z" fill="#000000" fill-opacity="0.2"/><path d="M276.522 243.125 179.125 243.125 179.125 491.484 276.522 491.484C287.194 491.455 295.97 482.678 296 472.007L296 262.603C295.97 251.931 287.194 243.155 276.522 243.125Z" fill="#000000" fill-opacity="0.2"/><path d="M81.7278 243.125 276.522 243.125C287.205 243.125 296 251.92 296 262.603L296 457.397C296 468.08 287.207 476.875 276.522 476.875L81.7278 476.875C71.0454 476.875 62.25 468.08 62.25 457.397L62.25 262.603C62.25 251.92 71.0454 243.125 81.7278 243.125Z" fill="#107C41"/><path d="M113.871 433.047 161.143 359.796 117.844 286.953 152.688 286.953 176.324 333.51C178.496 337.928 179.99 341.224 180.806 343.395L181.112 343.395C182.672 339.866 184.304 336.434 186.004 333.104L211.268 286.953 243.26 286.953 198.839 359.388 244.379 433.047 210.35 433.047 183.046 381.905C181.76 379.731 180.67 377.444 179.786 375.079L179.38 375.079C178.581 377.397 177.523 379.618 176.22 381.698L148.102 433.047Z" fill="#FFFFFF"/></g></g></g><g><g><g><path d="M92.9565 72.0157 88.7002 72.0157C86.9977 89.3812 84.6142 110.492 54.6502 110.492L40.86 110.492C32.8582 110.492 32.5177 109.3 32.5177 103.682L32.5177 13.2795C32.5177 7.491 32.5177 5.1075 48.5212 5.1075L54.1395 5.1075 54.1395 4.72539e-15C48.0105 0.51075 32.688 0.51075 25.7077 0.51075 19.068 0.51075 5.7885 0.51075-3.78031e-15 4.72539e-15L-3.78031e-15 5.1075 3.91575 5.1075C17.025 5.1075 17.3655 6.98025 17.3655 13.1092L17.3655 102.49C17.3655 108.619 17.025 110.492 3.91575 110.492L-4.25285e-15 110.492-4.25285e-15 115.77 88.3597 115.77Z" transform="matrix(1 0 0 1.00441 713.133 291.107)"/><path d="M47.8402 2.724C47.1592 0.681 46.8187 0 44.6055 0 42.3923 0 41.8815 0.681 41.2005 2.724L13.7902 72.186C12.5985 75.0802 10.5555 80.358-3.78031e-15 80.358L-3.78031e-15 84.6142 26.3887 84.6142 26.3887 80.358C21.111 80.358 17.8762 77.9745 17.8762 74.5695 17.8762 73.7182 18.0465 73.3777 18.387 72.186 18.387 72.186 24.1755 57.5445 24.1755 57.5445L57.885 57.5445 64.695 74.91C65.0355 75.591 65.376 76.4422 65.376 76.953 65.376 80.358 58.9065 80.358 55.6717 80.358L55.6717 84.6142 89.211 84.6142 89.211 80.358 86.8275 80.358C78.8258 80.358 77.9745 79.1663 76.7828 75.7612 76.7828 75.7612 47.8402 2.724 47.8402 2.724ZM41.0303 14.8117 56.1825 53.2882 25.878 53.2882Z" transform="matrix(1 0 0 1.00441 755.355 288.2)"/><path d="M106.747 0 3.0645 0C3.0645 0-4.72539e-15 38.136-4.72539e-15 38.136L4.086 38.136C6.4695 10.7257 9.02325 5.1075 34.731 5.1075 37.7955 5.1075 42.222 5.1075 43.9245 5.448 47.4997 6.129 47.4997 8.00175 47.4997 11.9175L47.4997 101.299C47.4997 107.087 47.4997 109.471 29.6235 109.471L22.8135 109.471 22.8135 114.748C29.7937 114.238 46.989 114.238 54.8205 114.238 62.652 114.238 80.1878 114.238 87.168 114.748L87.168 109.471 80.358 109.471C62.4818 109.471 62.4818 107.087 62.4818 101.299L62.4818 11.9175C62.4818 8.5125 62.4818 6.129 65.5462 5.448 67.419 5.1075 72.0157 5.1075 75.2505 5.1075 100.788 5.1075 103.342 10.7257 105.725 38.136L109.981 38.136C109.981 38.136 106.747-1.51212e-14 106.747-1.51212e-14Z" transform="matrix(1 0 0 1.00441 832.819 292.133)"/><path d="M104.874 71.505 100.618 71.505C96.3615 97.5532 92.4457 109.981 63.333 109.981L40.86 109.981C32.8582 109.981 32.5177 108.79 32.5177 103.171L32.5177 57.885 47.67 57.885C64.1842 57.885 66.057 63.333 66.057 77.8043L70.3132 77.8043 70.3132 32.8582 66.057 32.8582C66.057 47.3295 64.1842 52.6072 47.67 52.6072L32.5177 52.6072 32.5177 11.9175C32.5177 6.29925 32.8582 5.1075 40.86 5.1075L62.652 5.1075C88.7002 5.1075 93.1267 14.4713 95.8507 38.136L100.107 38.136 95.34-2.26819e-14 1.51212e-14-2.26819e-14 1.51212e-14 5.1075 3.91575 5.1075C17.025 5.1075 17.3655 6.98025 17.3655 13.1092L17.3655 101.98C17.3655 108.109 17.025 109.981 3.91575 109.981L1.46487e-14 109.981 1.46487e-14 115.259 97.7235 115.259Z" transform="matrix(1 0 0 1.00441 925.946 330.095)"/><path d="M64.014 50.2238 87.3382 16.1737C90.9135 10.7257 96.702 5.27775 111.854 5.1075L111.854 2.83523e-15 71.3347 2.83523e-15 71.3347 5.1075C78.1448 5.27775 81.8902 9.02325 81.8902 12.939 81.8902 14.6415 81.5498 14.982 80.358 16.8547 80.358 16.8547 60.9495 45.4567 60.9495 45.4567L39.1575 12.7687C38.817 12.258 37.9657 10.896 37.9657 10.215 37.9657 8.172 41.7113 5.27775 48.8617 5.1075L48.8617 0C43.0732 0.51075 30.645 0.51075 24.1755 0.51075 18.8977 0.51075 8.34225 0.3405 2.043 0L2.043 5.1075 5.27775 5.1075C14.6415 5.1075 17.8762 6.29925 21.111 11.0662 21.111 11.0662 52.2667 58.2255 52.2667 58.2255L24.516 99.2557C22.1325 102.661 17.025 110.492 2.26819e-14 110.492L2.26819e-14 115.77 40.5195 115.77 40.5195 110.492C32.688 110.322 29.7937 105.725 29.7937 102.661 29.7937 101.129 30.3045 100.448 31.4963 98.5747L55.5015 62.9925 82.401 103.512C82.7415 104.193 83.2522 104.874 83.2522 105.385 83.2522 107.428 79.5068 110.322 72.186 110.492L72.186 115.77C78.1448 115.259 90.573 115.259 96.8722 115.259 104.023 115.259 111.854 115.43 119.005 115.77L119.005 110.492 115.77 110.492C106.917 110.492 103.342 109.641 99.7665 104.363 99.7665 104.363 64.014 50.2238 64.014 50.2238Z" transform="matrix(1 0 0 1.00441 1018.05 291.107)"/></g></g></g><path d="M636.5 168.5 636.5 552.5" stroke="#404040" stroke-width="13.3333" stroke-miterlimit="8" fill="none" fill-rule="evenodd"/></g></svg>