<svg xmlns="http://www.w3.org/2000/svg" width="24" height="24" viewBox="0 0 24 24">
  <path fill="#1B1E25" d="M 7.03125 0.0859375 C 5.753906 0.144531 4.882812 0.347656 4.117188 0.648438 C 3.332031 0.953125 2.660156 1.367188 1.996094 2.035156 C 1.332031 2.703125 0.921875 3.371094 0.617188 4.160156 C 0.320312 4.925781 0.121094 5.796875 0.0625 7.074219 C 0.0078125 8.355469 -0.00390625 8.765625 0 12.023438 C 0.0078125 15.28125 0.0234375 15.691406 0.0859375 16.96875 C 0.144531 18.246094 0.347656 19.117188 0.648438 19.882812 C 0.957031 20.671875 1.367188 21.339844 2.035156 22.003906 C 2.703125 22.667969 3.371094 23.078125 4.164062 23.382812 C 4.925781 23.679688 5.800781 23.878906 7.078125 23.9375 C 8.355469 23.992188 8.765625 24.003906 12.023438 24 C 15.28125 23.992188 15.691406 23.976562 16.972656 23.917969 C 18.25 23.855469 19.117188 23.652344 19.882812 23.355469 C 20.671875 23.046875 21.339844 22.632812 22.003906 21.964844 C 22.667969 21.296875 23.078125 20.628906 23.382812 19.835938 C 23.679688 19.074219 23.878906 18.203125 23.933594 16.925781 C 23.992188 15.644531 24.003906 15.234375 24 11.976562 C 23.992188 8.71875 23.976562 8.308594 23.917969 7.03125 C 23.855469 5.75 23.652344 4.882812 23.351562 4.117188 C 23.046875 3.328125 22.632812 2.660156 21.964844 1.996094 C 21.296875 1.332031 20.628906 0.921875 19.835938 0.617188 C 19.074219 0.320312 18.203125 0.121094 16.925781 0.0664062 C 15.648438 0.0078125 15.234375 -0.00390625 11.976562 0 C 8.71875 0.0078125 8.308594 0.0234375 7.03125 0.0859375 M 7.171875 21.777344 C 6 21.726562 5.363281 21.53125 4.941406 21.367188 C 4.382812 21.152344 3.980469 20.890625 3.558594 20.472656 C 3.136719 20.054688 2.878906 19.65625 2.660156 19.097656 C 2.496094 18.671875 2.296875 18.039062 2.242188 16.867188 C 2.183594 15.605469 2.171875 15.222656 2.164062 12.019531 C 2.15625 8.816406 2.167969 8.4375 2.222656 7.171875 C 2.273438 6.003906 2.46875 5.367188 2.632812 4.945312 C 2.847656 4.382812 3.109375 3.984375 3.527344 3.5625 C 3.945312 3.140625 4.34375 2.882812 4.90625 2.660156 C 5.328125 2.496094 5.964844 2.300781 7.132812 2.246094 C 8.398438 2.183594 8.777344 2.171875 11.980469 2.164062 C 15.183594 2.160156 15.5625 2.171875 16.828125 2.226562 C 18 2.277344 18.636719 2.472656 19.058594 2.632812 C 19.617188 2.851562 20.019531 3.109375 20.441406 3.53125 C 20.859375 3.949219 21.121094 4.347656 21.339844 4.910156 C 21.503906 5.332031 21.703125 5.964844 21.757812 7.132812 C 21.816406 8.398438 21.832031 8.78125 21.835938 11.984375 C 21.84375 15.1875 21.832031 15.566406 21.777344 16.832031 C 21.722656 18 21.53125 18.636719 21.367188 19.058594 C 21.152344 19.621094 20.890625 20.019531 20.472656 20.441406 C 20.054688 20.863281 19.652344 21.121094 19.09375 21.339844 C 18.671875 21.507812 18.035156 21.703125 16.867188 21.757812 C 15.601562 21.820312 15.222656 21.832031 12.019531 21.835938 C 8.8125 21.84375 8.4375 21.832031 7.171875 21.777344 M 16.953125 5.585938 C 16.953125 6.382812 17.601562 7.027344 18.394531 7.023438 C 19.191406 7.023438 19.835938 6.375 19.832031 5.582031 C 19.832031 4.785156 19.183594 4.140625 18.390625 4.144531 C 17.59375 4.144531 16.953125 4.792969 16.953125 5.585938 M 5.839844 12.011719 C 5.84375 15.414062 8.609375 18.167969 12.011719 18.160156 C 15.414062 18.15625 18.167969 15.390625 18.160156 11.988281 C 18.15625 8.585938 15.390625 5.832031 11.988281 5.839844 C 8.585938 5.84375 5.832031 8.609375 5.839844 12.011719 M 8 12.007812 C 7.996094 9.796875 9.78125 8.003906 11.992188 8 C 14.203125 7.996094 15.996094 9.78125 16 11.992188 C 16.003906 14.199219 14.21875 15.996094 12.007812 16 C 9.796875 16.003906 8.003906 14.21875 8 12.007812 "/>
</svg>