<svg width="3514" height="2475" xmlns="http://www.w3.org/2000/svg" xmlns:xlink="http://www.w3.org/1999/xlink" xml:space="preserve" overflow="hidden"><defs><filter id="fx0" x="-10%" y="-10%" width="120%" height="120%" filterUnits="userSpaceOnUse" primitiveUnits="userSpaceOnUse"><feComponentTransfer color-interpolation-filters="sRGB"><feFuncR type="discrete" tableValues="0 0"/><feFuncG type="discrete" tableValues="0 0"/><feFuncB type="discrete" tableValues="0 0"/><feFuncA type="linear" slope="0.278431" intercept="0"/></feComponentTransfer><feGaussianBlur stdDeviation="6.11111 6.11111"/></filter><filter id="fx1" x="-10%" y="-10%" width="120%" height="120%" filterUnits="userSpaceOnUse" primitiveUnits="userSpaceOnUse"><feComponentTransfer color-interpolation-filters="sRGB"><feFuncR type="discrete" tableValues="0 0"/><feFuncG type="discrete" tableValues="0 0"/><feFuncB type="discrete" tableValues="0 0"/><feFuncA type="linear" slope="0.278431" intercept="0"/></feComponentTransfer><feGaussianBlur stdDeviation="6.11111 6.11111"/></filter><clipPath id="clip2"><rect x="115" y="0" width="3514" height="2475"/></clipPath><linearGradient x1="2070.22" y1="10.8129" x2="3528.71" y2="3138.58" gradientUnits="userSpaceOnUse" spreadMethod="reflect" id="stroke3"><stop offset="0" stop-color="#FFFFFF"/><stop offset="0.55" stop-color="#33C481"/><stop offset="0.79" stop-color="#107C41"/><stop offset="1" stop-color="#185C37"/><stop offset="1" stop-color="#FFFFFF"/><stop offset="1" stop-color="#33C481"/><stop offset="1" stop-color="#107C41"/><stop offset="1" stop-color="#185C37"/><stop offset="1" stop-color="#FFFFFF"/><stop offset="1" stop-color="#33C481"/><stop offset="1" stop-color="#107C41"/><stop offset="1" stop-color="#185C37"/><stop offset="1" stop-color="#FFFFFF"/><stop offset="1" stop-color="#33C481"/><stop offset="1" stop-color="#107C41"/><stop offset="1" stop-color="#185C37"/><stop offset="1" stop-color="#FFFFFF"/><stop offset="1" stop-color="#33C481"/><stop offset="1" stop-color="#107C41"/><stop offset="1" stop-color="#185C37"/><stop offset="1" stop-color="#FFFFFF"/><stop offset="1" stop-color="#33C481"/><stop offset="1" stop-color="#107C41"/><stop offset="1" stop-color="#185C37"/><stop offset="1" stop-color="#FFFFFF"/><stop offset="1" stop-color="#33C481"/><stop offset="1" stop-color="#107C41"/><stop offset="1" stop-color="#185C37"/><stop offset="1" stop-color="#FFFFFF"/><stop offset="1" stop-color="#33C481"/><stop offset="1" stop-color="#107C41"/><stop offset="1" stop-color="#185C37"/><stop offset="1" stop-color="#FFFFFF"/><stop offset="1" stop-color="#33C481"/><stop offset="1" stop-color="#107C41"/><stop offset="1" stop-color="#185C37"/><stop offset="1" stop-color="#FFFFFF"/><stop offset="1" stop-color="#33C481"/><stop offset="1" stop-color="#107C41"/><stop offset="1" stop-color="#185C37"/><stop offset="1" stop-color="#FFFFFF"/><stop offset="1" stop-color="#33C481"/><stop offset="1" stop-color="#107C41"/><stop offset="1" stop-color="#185C37"/><stop offset="1" stop-color="#FFFFFF"/><stop offset="1" stop-color="#33C481"/><stop offset="1" stop-color="#107C41"/><stop offset="1" stop-color="#185C37"/><stop offset="1" stop-color="#FFFFFF"/><stop offset="1" stop-color="#33C481"/><stop offset="1" stop-color="#107C41"/><stop offset="1" stop-color="#185C37"/><stop offset="1" stop-color="#FFFFFF"/><stop offset="1" stop-color="#33C481"/><stop offset="1" stop-color="#107C41"/><stop offset="1" stop-color="#185C37"/><stop offset="1" stop-color="#FFFFFF"/><stop offset="1" stop-color="#33C481"/><stop offset="1" stop-color="#107C41"/><stop offset="1" stop-color="#185C37"/><stop offset="1" stop-color="#FFFFFF"/><stop offset="1" stop-color="#33C481"/><stop offset="1" stop-color="#107C41"/><stop offset="1" stop-color="#185C37"/><stop offset="1" stop-color="#FFFFFF"/><stop offset="1" stop-color="#33C481"/><stop offset="1" stop-color="#107C41"/><stop offset="1" stop-color="#185C37"/><stop offset="1" stop-color="#FFFFFF"/><stop offset="1" stop-color="#33C481"/><stop offset="1" stop-color="#107C41"/><stop offset="1" stop-color="#185C37"/><stop offset="1" stop-color="#FFFFFF"/><stop offset="1" stop-color="#33C481"/><stop offset="1" stop-color="#107C41"/><stop offset="1" stop-color="#185C37"/><stop offset="1" stop-color="#FFFFFF"/><stop offset="1" stop-color="#33C481"/><stop offset="1" stop-color="#107C41"/><stop offset="1" stop-color="#185C37"/><stop offset="1" stop-color="#FFFFFF"/><stop offset="1" stop-color="#33C481"/><stop offset="1" stop-color="#107C41"/><stop offset="1" stop-color="#185C37"/><stop offset="1" stop-color="#FFFFFF"/><stop offset="1" stop-color="#33C481"/><stop offset="1" stop-color="#107C41"/><stop offset="1" stop-color="#185C37"/><stop offset="1" stop-color="#FFFFFF"/><stop offset="1" stop-color="#33C481"/><stop offset="1" stop-color="#107C41"/><stop offset="1" stop-color="#185C37"/><stop offset="1" stop-color="#FFFFFF"/><stop offset="1" stop-color="#33C481"/><stop offset="1" stop-color="#107C41"/><stop offset="1" stop-color="#185C37"/><stop offset="1" stop-color="#FFFFFF"/><stop offset="1" stop-color="#33C481"/><stop offset="1" stop-color="#107C41"/><stop offset="1" stop-color="#185C37"/><stop offset="1" stop-color="#FFFFFF"/><stop offset="1" stop-color="#33C481"/><stop offset="1" stop-color="#107C41"/><stop offset="1" stop-color="#185C37"/><stop offset="1" stop-color="#FFFFFF"/><stop offset="1" stop-color="#33C481"/><stop offset="1" stop-color="#107C41"/><stop offset="1" stop-color="#185C37"/><stop offset="1" stop-color="#FFFFFF"/><stop offset="1" stop-color="#33C481"/><stop offset="1" stop-color="#107C41"/><stop offset="1" stop-color="#185C37"/><stop offset="1" stop-color="#FFFFFF"/><stop offset="1" stop-color="#33C481"/><stop offset="1" stop-color="#107C41"/><stop offset="1" stop-color="#185C37"/><stop offset="1" stop-color="#FFFFFF"/><stop offset="1" stop-color="#33C481"/><stop offset="1" stop-color="#107C41"/><stop offset="1" stop-color="#185C37"/><stop offset="1" stop-color="#FFFFFF"/><stop offset="1" stop-color="#33C481"/><stop offset="1" stop-color="#107C41"/><stop offset="1" stop-color="#185C37"/><stop offset="1" stop-color="#FFFFFF"/><stop offset="1" stop-color="#33C481"/><stop offset="1" stop-color="#107C41"/><stop offset="1" stop-color="#185C37"/></linearGradient><clipPath id="clip4"><rect x="768" y="465" width="1043" height="922"/></clipPath><clipPath id="clip5"><rect x="49" y="49" width="1500" height="585"/></clipPath></defs><g clip-path="url(#clip2)" transform="translate(-115 0)"><g><g><g><path d="M1701.31 1574.7 2206.64 628.607 3392.29 628.607 3897.62 1574.7 3392.29 2520.79 2206.64 2520.79Z" stroke="url(#stroke3)" stroke-width="583.222" stroke-miterlimit="8" fill="none" fill-rule="evenodd" transform="matrix(1 0 0 1.00001 -599.466 -337.211)"/></g></g></g><g clip-path="url(#clip4)" filter="url(#fx0)" transform="translate(114 321)"><g><g><g><g><path d="M1393.63 470.21 1061.27 470.21C1038.49 470.21 1019.73 488.968 1019.73 511.751L1019.73 688.319 1393.63 906.429 1580.58 985.31 1767.54 906.429 1767.54 688.319Z" fill="#21A366" transform="matrix(1 0 0 1.00008 19.7228 19.7227)"/><path d="M1019.73 688.319 1393.63 688.319 1393.63 906.429 1019.73 906.429Z" fill="#107C41" fill-rule="evenodd" transform="matrix(1 0 0 1.00008 19.7228 19.7227)"/><path d="M1725.99 470.21 1393.63 470.21 1393.63 688.319 1767.54 688.319 1767.54 511.751C1767.54 488.968 1748.78 470.21 1725.99 470.21Z" fill="#33C481" transform="matrix(1 0 0 1.00008 19.7228 19.7227)"/><path d="M1393.63 906.429 1019.73 906.429 1019.73 1301.11C1019.73 1323.89 1038.49 1342.65 1061.27 1342.65L1725.99 1342.65C1748.78 1342.65 1767.54 1323.89 1767.54 1301.11L1767.54 1124.54Z" fill="#185C37" transform="matrix(1 0 0 1.00008 19.7228 19.7227)"/><path d="M1393.63 906.429 1767.54 906.429 1767.54 1124.54 1393.63 1124.54Z" fill="#107C41" fill-rule="evenodd" transform="matrix(1 0 0 1.00008 19.7228 19.7227)"/><path d="M1289.78 626.002 1019.73 626.002 1019.73 1218.01 1289.78 1218.01C1312.54 1217.95 1331.25 1199.23 1331.32 1176.47L1331.32 667.544C1331.25 644.783 1312.54 626.066 1289.78 626.002Z" fill="#000000" fill-opacity="0.094118" transform="matrix(1 0 0 1.00008 19.7228 19.7227)"/><path d="M1258.62 657.161 1019.73 657.161 1019.73 1249.17 1258.62 1249.17C1281.38 1249.11 1300.09 1230.39 1300.16 1207.63L1300.16 698.702C1300.09 675.942 1281.38 657.224 1258.62 657.161Z" fill="#000000" fill-opacity="0.2" transform="matrix(1 0 0 1.00008 19.7228 19.7227)"/><path d="M1258.62 657.161 1019.73 657.161 1019.73 1186.85 1258.62 1186.85C1281.38 1186.79 1300.09 1168.07 1300.16 1145.31L1300.16 698.702C1300.09 675.942 1281.38 657.224 1258.62 657.161Z" fill="#000000" fill-opacity="0.2" transform="matrix(1 0 0 1.00008 19.7228 19.7227)"/><path d="M1227.46 657.161 1019.73 657.161 1019.73 1186.85 1227.46 1186.85C1250.22 1186.79 1268.94 1168.07 1269 1145.31L1269 698.702C1268.94 675.942 1250.22 657.224 1227.46 657.161Z" fill="#000000" fill-opacity="0.2" transform="matrix(1 0 0 1.00008 19.7228 19.7227)"/><path d="M812.006 657.161 1227.46 657.161C1250.24 657.161 1269 675.919 1269 698.702L1269 1114.15C1269 1136.94 1250.25 1155.7 1227.46 1155.7L812.006 1155.7C789.223 1155.7 770.464 1136.94 770.464 1114.15L770.464 698.702C770.464 675.919 789.223 657.161 812.006 657.161Z" fill="#107C41" transform="matrix(1 0 0 1.00008 19.7228 19.7227)"/><path d="M880.559 1062.22 981.381 905.993 889.034 750.636 963.348 750.636 1013.76 849.931C1018.39 859.353 1021.58 866.383 1023.32 871.014L1023.97 871.014C1027.3 863.486 1030.78 856.167 1034.4 849.065L1088.29 750.636 1156.52 750.636 1061.78 905.123 1158.91 1062.22 1086.33 1062.22 1028.09 953.146C1025.35 948.509 1023.03 943.633 1021.14 938.589L1020.28 938.589C1018.57 943.533 1016.31 948.269 1013.54 952.706L953.567 1062.22Z" fill="#FFFFFF" transform="matrix(1 0 0 1.00008 19.7228 19.7227)"/></g></g></g></g></g><g><g><g><path d="M1393.63 470.21 1061.27 470.21C1038.49 470.21 1019.73 488.968 1019.73 511.751L1019.73 688.319 1393.63 906.429 1580.58 985.31 1767.54 906.429 1767.54 688.319Z" fill="#21A366" transform="matrix(1 0 0 1.00008 124 331)"/><path d="M1019.73 688.319 1393.63 688.319 1393.63 906.429 1019.73 906.429Z" fill="#107C41" fill-rule="evenodd" transform="matrix(1 0 0 1.00008 124 331)"/><path d="M1725.99 470.21 1393.63 470.21 1393.63 688.319 1767.54 688.319 1767.54 511.751C1767.54 488.968 1748.78 470.21 1725.99 470.21Z" fill="#33C481" transform="matrix(1 0 0 1.00008 124 331)"/><path d="M1393.63 906.429 1019.73 906.429 1019.73 1301.11C1019.73 1323.89 1038.49 1342.65 1061.27 1342.65L1725.99 1342.65C1748.78 1342.65 1767.54 1323.89 1767.54 1301.11L1767.54 1124.54Z" fill="#185C37" transform="matrix(1 0 0 1.00008 124 331)"/><path d="M1393.63 906.429 1767.54 906.429 1767.54 1124.54 1393.63 1124.54Z" fill="#107C41" fill-rule="evenodd" transform="matrix(1 0 0 1.00008 124 331)"/><path d="M1289.78 626.002 1019.73 626.002 1019.73 1218.01 1289.78 1218.01C1312.54 1217.95 1331.25 1199.23 1331.32 1176.47L1331.32 667.544C1331.25 644.783 1312.54 626.066 1289.78 626.002Z" fill="#000000" fill-opacity="0.094118" transform="matrix(1 0 0 1.00008 124 331)"/><path d="M1258.62 657.161 1019.73 657.161 1019.73 1249.17 1258.62 1249.17C1281.38 1249.11 1300.09 1230.39 1300.16 1207.63L1300.16 698.702C1300.09 675.942 1281.38 657.224 1258.62 657.161Z" fill="#000000" fill-opacity="0.2" transform="matrix(1 0 0 1.00008 124 331)"/><path d="M1258.62 657.161 1019.73 657.161 1019.73 1186.85 1258.62 1186.85C1281.38 1186.79 1300.09 1168.07 1300.16 1145.31L1300.16 698.702C1300.09 675.942 1281.38 657.224 1258.62 657.161Z" fill="#000000" fill-opacity="0.2" transform="matrix(1 0 0 1.00008 124 331)"/><path d="M1227.46 657.161 1019.73 657.161 1019.73 1186.85 1227.46 1186.85C1250.22 1186.79 1268.94 1168.07 1269 1145.31L1269 698.702C1268.94 675.942 1250.22 657.224 1227.46 657.161Z" fill="#000000" fill-opacity="0.2" transform="matrix(1 0 0 1.00008 124 331)"/><path d="M812.006 657.161 1227.46 657.161C1250.24 657.161 1269 675.919 1269 698.702L1269 1114.15C1269 1136.94 1250.25 1155.7 1227.46 1155.7L812.006 1155.7C789.223 1155.7 770.464 1136.94 770.464 1114.15L770.464 698.702C770.464 675.919 789.223 657.161 812.006 657.161Z" fill="#107C41" transform="matrix(1 0 0 1.00008 124 331)"/><path d="M880.559 1062.22 981.381 905.993 889.034 750.636 963.348 750.636 1013.76 849.931C1018.39 859.353 1021.58 866.383 1023.32 871.014L1023.97 871.014C1027.3 863.486 1030.78 856.167 1034.4 849.065L1088.29 750.636 1156.52 750.636 1061.78 905.123 1158.91 1062.22 1086.33 1062.22 1028.09 953.146C1025.35 948.509 1023.03 943.633 1021.14 938.589L1020.28 938.589C1018.57 943.533 1016.31 948.269 1013.54 952.706L953.567 1062.22Z" fill="#FFFFFF" transform="matrix(1 0 0 1.00008 124 331)"/></g></g></g><g clip-path="url(#clip5)" filter="url(#fx1)" transform="translate(2005 930)"><g><g><g><g><path d="M319.205 247.296 304.59 247.296C298.743 306.928 290.559 379.422 187.665 379.422L140.31 379.422C112.833 379.422 111.663 375.329 111.663 356.037L111.663 45.6007C111.663 25.7235 111.663 17.5387 166.618 17.5387L185.911 17.5387 185.911 1.62266e-14C164.864 1.75387 112.248 1.75387 88.2784 1.75387 65.478 1.75387 19.8772 1.75387-1.29813e-14 1.62266e-14L-1.29813e-14 17.5387 13.4464 17.5387C58.4625 17.5387 59.6317 23.9696 59.6317 45.0161L59.6317 351.944C59.6317 372.991 58.4625 379.422 13.4464 379.422L-1.46039e-14 379.422-1.46039e-14 397.545 303.42 397.545Z" transform="matrix(1 0 0 1.00064 71.6895 81.6678)"/><path d="M164.28 9.354C161.941 2.3385 160.772 0 153.172 0 145.572 0 143.818 2.3385 141.479 9.354L47.3546 247.881C43.2622 257.82 36.2467 275.943-1.29813e-14 275.943L-1.29813e-14 290.559 90.6169 290.559 90.6169 275.943C72.4935 275.943 61.3856 267.758 61.3856 256.066 61.3856 253.143 61.9702 251.973 63.1395 247.881 63.1395 247.881 83.0167 197.603 83.0167 197.603L198.772 197.603 222.157 257.235C223.327 259.573 224.496 262.497 224.496 264.25 224.496 275.943 202.28 275.943 191.172 275.943L191.172 290.559 306.343 290.559 306.343 275.943 298.159 275.943C270.681 275.943 267.758 271.851 263.666 260.158 263.666 260.158 164.28 9.354 164.28 9.354ZM140.895 50.8624 192.926 182.988 88.863 182.988Z" transform="matrix(1 0 0 1.00064 216.677 71.7228)"/><path d="M366.56 0 10.5232 0C10.5232 0-1.62266e-14 130.956-1.62266e-14 130.956L14.031 130.956C22.2157 36.8314 30.9851 17.5387 119.263 17.5387 129.787 17.5387 144.987 17.5387 150.833 18.708 163.11 21.0465 163.11 27.4774 163.11 40.9237L163.11 347.852C163.11 367.729 163.11 375.914 101.725 375.914L78.3398 375.914 78.3398 394.037C102.309 392.283 161.356 392.283 188.249 392.283 215.142 392.283 275.358 392.283 299.328 394.037L299.328 375.914 275.943 375.914C214.557 375.914 214.557 367.729 214.557 347.852L214.557 40.9237C214.557 29.2312 214.557 21.0465 225.081 18.708 231.511 17.5387 247.296 17.5387 258.404 17.5387 346.098 17.5387 354.867 36.8314 363.052 130.956L377.668 130.956C377.668 130.956 366.56-5.19251e-14 366.56-5.19251e-14Z" transform="matrix(1 0 0 1.00064 482.681 85.1779)"/><path d="M360.129 245.542 345.513 245.542C330.898 334.99 317.451 377.668 217.48 377.668L140.31 377.668C112.833 377.668 111.663 373.575 111.663 354.283L111.663 198.772 163.695 198.772C220.404 198.772 226.835 217.48 226.835 267.174L241.45 267.174 241.45 112.833 226.835 112.833C226.835 162.526 220.404 180.649 163.695 180.649L111.663 180.649 111.663 40.9237C111.663 21.6311 112.833 17.5387 140.31 17.5387L215.142 17.5387C304.59 17.5387 319.79 49.6931 329.144 130.956L343.759 130.956 327.39-7.78878e-14 5.19251e-14-7.78878e-14 5.19251e-14 17.5387 13.4464 17.5387C58.4625 17.5387 59.6317 23.9696 59.6317 45.0161L59.6317 350.19C59.6317 371.237 58.4625 377.668 13.4464 377.668L5.03025e-14 377.668 5.03025e-14 395.791 335.575 395.791Z" transform="matrix(1 0 0 1.00064 802.471 215.048)"/><path d="M219.819 172.464 299.913 55.5394C312.19 36.8314 332.067 18.1234 384.099 17.5387L384.099 9.73594e-15 244.958 9.73594e-15 244.958 17.5387C268.343 18.1234 281.205 30.9851 281.205 44.4315 281.205 50.2777 280.035 51.447 275.943 57.8779 275.943 57.8779 209.296 156.095 209.296 156.095L134.464 43.8469C133.294 42.093 130.371 37.416 130.371 35.0775 130.371 28.062 143.233 18.1234 167.787 17.5387L167.787 0C147.91 1.75387 105.232 1.75387 83.0167 1.75387 64.8934 1.75387 28.6466 1.16925 7.0155 0L7.0155 17.5387 18.1234 17.5387C50.2777 17.5387 61.3856 21.6311 72.4935 38.0006 72.4935 38.0006 179.48 199.942 179.48 199.942L84.186 340.836C76.0012 352.529 58.4625 379.422 7.78878e-14 379.422L7.78878e-14 397.545 139.141 397.545 139.141 379.422C112.248 378.837 102.309 363.052 102.309 352.529 102.309 347.267 104.063 344.929 108.156 338.498L190.588 216.311 282.958 355.452C284.128 357.79 285.882 360.129 285.882 361.883 285.882 368.898 273.02 378.837 247.881 379.422L247.881 397.545C268.343 395.791 311.021 395.791 332.652 395.791 357.206 395.791 384.099 396.376 408.653 397.545L408.653 379.422 397.545 379.422C367.145 379.422 354.867 376.498 342.59 358.375 342.59 358.375 219.819 172.464 219.819 172.464Z" transform="matrix(1 0 0 1.00064 1118.75 81.6678)"/></g></g></g></g></g><g><g><g><path d="M319.205 247.296 304.59 247.296C298.743 306.928 290.559 379.422 187.665 379.422L140.31 379.422C112.833 379.422 111.663 375.329 111.663 356.037L111.663 45.6007C111.663 25.7235 111.663 17.5387 166.618 17.5387L185.911 17.5387 185.911 1.62266e-14C164.864 1.75387 112.248 1.75387 88.2784 1.75387 65.478 1.75387 19.8772 1.75387-1.29813e-14 1.62266e-14L-1.29813e-14 17.5387 13.4464 17.5387C58.4625 17.5387 59.6317 23.9696 59.6317 45.0161L59.6317 351.944C59.6317 372.991 58.4625 379.422 13.4464 379.422L-1.46039e-14 379.422-1.46039e-14 397.545 303.42 397.545Z" transform="matrix(1 0 0 1.00064 2066.97 1001.95)"/><path d="M164.28 9.354C161.941 2.3385 160.772 0 153.172 0 145.572 0 143.818 2.3385 141.479 9.354L47.3546 247.881C43.2622 257.82 36.2467 275.943-1.29813e-14 275.943L-1.29813e-14 290.559 90.6169 290.559 90.6169 275.943C72.4935 275.943 61.3856 267.758 61.3856 256.066 61.3856 253.143 61.9702 251.973 63.1395 247.881 63.1395 247.881 83.0167 197.603 83.0167 197.603L198.772 197.603 222.157 257.235C223.327 259.573 224.496 262.497 224.496 264.25 224.496 275.943 202.28 275.943 191.172 275.943L191.172 290.559 306.343 290.559 306.343 275.943 298.159 275.943C270.681 275.943 267.758 271.851 263.666 260.158 263.666 260.158 164.28 9.354 164.28 9.354ZM140.895 50.8624 192.926 182.988 88.863 182.988Z" transform="matrix(1 0 0 1.00064 2211.95 992)"/><path d="M366.56 0 10.5232 0C10.5232 0-1.62266e-14 130.956-1.62266e-14 130.956L14.031 130.956C22.2157 36.8314 30.9851 17.5387 119.263 17.5387 129.787 17.5387 144.987 17.5387 150.833 18.708 163.11 21.0465 163.11 27.4774 163.11 40.9237L163.11 347.852C163.11 367.729 163.11 375.914 101.725 375.914L78.3398 375.914 78.3398 394.037C102.309 392.283 161.356 392.283 188.249 392.283 215.142 392.283 275.358 392.283 299.328 394.037L299.328 375.914 275.943 375.914C214.557 375.914 214.557 367.729 214.557 347.852L214.557 40.9237C214.557 29.2312 214.557 21.0465 225.081 18.708 231.511 17.5387 247.296 17.5387 258.404 17.5387 346.098 17.5387 354.867 36.8314 363.052 130.956L377.668 130.956C377.668 130.956 366.56-5.19251e-14 366.56-5.19251e-14Z" transform="matrix(1 0 0 1.00064 2477.96 1005.46)"/><path d="M360.129 245.542 345.513 245.542C330.898 334.99 317.451 377.668 217.48 377.668L140.31 377.668C112.833 377.668 111.663 373.575 111.663 354.283L111.663 198.772 163.695 198.772C220.404 198.772 226.835 217.48 226.835 267.174L241.45 267.174 241.45 112.833 226.835 112.833C226.835 162.526 220.404 180.649 163.695 180.649L111.663 180.649 111.663 40.9237C111.663 21.6311 112.833 17.5387 140.31 17.5387L215.142 17.5387C304.59 17.5387 319.79 49.6931 329.144 130.956L343.759 130.956 327.39-7.78878e-14 5.19251e-14-7.78878e-14 5.19251e-14 17.5387 13.4464 17.5387C58.4625 17.5387 59.6317 23.9696 59.6317 45.0161L59.6317 350.19C59.6317 371.237 58.4625 377.668 13.4464 377.668L5.03025e-14 377.668 5.03025e-14 395.791 335.575 395.791Z" transform="matrix(1 0 0 1.00064 2797.75 1135.33)"/><path d="M219.819 172.464 299.913 55.5394C312.19 36.8314 332.067 18.1234 384.099 17.5387L384.099 9.73594e-15 244.958 9.73594e-15 244.958 17.5387C268.343 18.1234 281.205 30.9851 281.205 44.4315 281.205 50.2777 280.035 51.447 275.943 57.8779 275.943 57.8779 209.296 156.095 209.296 156.095L134.464 43.8469C133.294 42.093 130.371 37.416 130.371 35.0775 130.371 28.062 143.233 18.1234 167.787 17.5387L167.787 0C147.91 1.75387 105.232 1.75387 83.0167 1.75387 64.8934 1.75387 28.6466 1.16925 7.0155 0L7.0155 17.5387 18.1234 17.5387C50.2777 17.5387 61.3856 21.6311 72.4935 38.0006 72.4935 38.0006 179.48 199.942 179.48 199.942L84.186 340.836C76.0012 352.529 58.4625 379.422 7.78878e-14 379.422L7.78878e-14 397.545 139.141 397.545 139.141 379.422C112.248 378.837 102.309 363.052 102.309 352.529 102.309 347.267 104.063 344.929 108.156 338.498L190.588 216.311 282.958 355.452C284.128 357.79 285.882 360.129 285.882 361.883 285.882 368.898 273.02 378.837 247.881 379.422L247.881 397.545C268.343 395.791 311.021 395.791 332.652 395.791 357.206 395.791 384.099 396.376 408.653 397.545L408.653 379.422 397.545 379.422C367.145 379.422 354.867 376.498 342.59 358.375 342.59 358.375 219.819 172.464 219.819 172.464Z" transform="matrix(1 0 0 1.00064 3114.03 1001.95)"/></g></g></g></g></svg>